<?xml version="1.0" encoding="utf-8"?>
<!-- Generator: Adobe Illustrator 25.4.1, SVG Export Plug-In . SVG Version: 6.00 Build 0)  -->
<svg version="1.1" id="Straykids" xmlns="http://www.w3.org/2000/svg" xmlns:xlink="http://www.w3.org/1999/xlink" x="0px" y="0px"
	 viewBox="0 0 281.6 144.7" enable-background="new 0 0 281.6 144.7" xml:space="preserve">
<g>
	<path fill-rule="evenodd" clip-rule="evenodd" d="M54.2,67.2c4.9-5.8,9.9-11.6,14.8-17.4c1.9-2.3,3.6-4.7,4.3-7.7
		c0.5-2.2,0.4-2.3-1.8-1.8c-4.2,0.9-8.2,2.3-12.1,3.9c-11.1,4.5-22.3,9.2-33.4,13.7c-4,1.6-8.1,3-12.1,4.4c-1.4,0.5-2.6,1.3-3.9,2
		C8,65.4,6,65.8,4,64.3c-2-1.5-2.6-3.6-2-6.2c0.3-1.3,0.6-2.7,1.4-3.9c0.1,0,0.2,0,0.4,0c0.7,0.8,0.9-0.1,1.2-0.4
		c1.6-1.5,3.2-3.1,4.8-4.6c4.9-4.8,9.9-9.7,14.8-14.5c0.2-0.2,0.6-0.4,0.2-0.6c-0.3-0.2-0.5,0.1-0.6,0.4c-0.9,0.6-1.8,1.2-2.7,1.8
		c-0.5,0-0.7-0.2-0.7-0.7c5.5-4.9,11.7-8.7,17.7-12.9c7.2-5.1,13.8-11,21.3-15.7c4.7-2.9,9.5-5.5,14.8-6.8c2.2-0.6,4.5,0.1,5.9,2
		c2.4,3.2,2.7,9.5,0.5,13c-0.8,1.3-1.1,3-2.7,3.9c-3.2,1.9-5.5,0.9-6.2-2.8c-0.3-1.3,0-2.6,0.1-3.9c0.1-1.5-0.5-1.8-1.9-1.7
		c-5.5,0.2-10.5,2-15.3,4.6c-10,5.4-19,12.2-27.6,19.4c-7,5.8-13.4,12.3-19.1,19.4c-0.5,0.6-0.9,1.3-1.5,2.2
		c2.8,0.2,5.2-0.3,7.6-0.9c8.8-1.9,17-5.5,25.5-8.4c10.8-3.7,21.6-7.8,32.5-11.3c3-1,5.8-0.8,8.3,1c2.4,1.6,2.9,4.1,1.3,6.5
		c-1.5,2.3-3.3,4.4-5.3,6.4c-14,14.4-27.1,29.6-39.8,45c-9.7,11.8-18.9,24-28.2,36.1c-1.6,2-2.8,4.3-4.2,6.5
		c-0.7,1.2-1.6,2.1-3.1,2.3c-0.9,0.1-1.5,0-1.5-1.2c0-1.3,0.5-2.2,1.4-3.1c4.4-4,8-8.5,10.9-13.6c1.5-2.8,3.3-5.5,5.3-8
		c0.4,0,0.7,0.1,0.8,0.5c0.5,0.6,0.5,0.6,1.3-0.4c11.2-13.6,22.5-27.2,33.5-41c3.2-4,6.4-7.8,9.2-12.1c0.2-0.2,0.3-0.4,0.5-0.6
		c0-0.1,0-0.3,0-0.4c-0.1,0.1-0.2,0.1-0.3,0.2c-0.1,0.1-0.3,0.3-0.4,0.4c-2.4,2.6-4.8,5.2-7.2,7.8C54.5,67.9,54.2,67.7,54.2,67.2z
		 M52.6,45.5c-2.8-0.4-25.5,8.6-27,10.7C35.1,53.1,43.8,49.2,52.6,45.5z"/>
	<path fill-rule="evenodd" clip-rule="evenodd" fill="#C02334" d="M227.6,90.6c0.3,0.3,0.5,0.6,1,0.6c4.5,0.7,8.3,3.1,12,5.4
		c1.6,1,2.7,2.4,3.4,4.1c0.5,1.1,0.3,2-0.9,2.6c-2,1.1-4.1,1.6-6.4,0.8c-1-0.3-1.3-0.8-1.3-1.9c0.1-4.2-4.4-8.8-8.7-9.1
		c-0.8-0.8-1.8-1.1-2.9-1.2c-4.1-1.7-8.4-2.6-12.8-3.1c-5.4-0.7-10.8-1.3-16.3-1.4c-1.7-0.1-2.7,0.4-3.4,2.2
		c-3,7.9-6.7,15.4-10,23.1c-0.5,1.2-0.8,3-2.8,2.7c-0.4-0.1-0.8-0.1-1.1-0.4c-1.3-1.4-1.4-4.5-0.3-6c4.3-6.1,7.9-12.7,10.4-19.8
		c0.4-1.1,0.2-1.6-1.2-1.6c-4.7,0.2-9.3,1-14,1.4c-2.9,0.3-4.4-0.8-5.1-3.8c-0.7-2.7,0-4.3,2.6-5.3c4.1-1.7,7.1-4.9,10.7-7.3
		c5.3-3.7,10.6-7.5,15.9-11.3c1.7-1.2,2.9-2.8,3.6-4.8c2.1-6.4,4.9-12.6,6.3-19.1c1.3-6.1,2.8-12.2,3.8-18.3
		c0.6-3.6,0.6-3.6,4.3-5.7c0.5,0.9-0.1,2,0.4,2.9c0.7-0.1,0.7-0.5,0.8-0.9c0.2-0.6,0.3-1.5,1-1.4c0.7,0.1,0.7,1.1,0.7,1.7
		c0,1.9-0.5,3.7-1.2,5.4c-3.8,10.1-7.1,20.4-10.1,30.7c-0.2,0.6-0.3,1.1,0,1.8c1.8-0.4,3.2-1.4,4.6-2.5c6.6-5,13.6-9.5,20.4-14.2
		c2.8-2,5.5-4.2,8.2-6.3c1.8-1.4,3.8-2.4,6.3-2.4c1.7,0,1.9,0.3,1,1.8c-0.9,1.7-2.4,2.9-4.1,3.8C229.9,40.5,218,48.6,206,56.3
		c-1.4,0.9-2.4,2.1-3,3.7c-2.9,7.7-6.2,15.2-8.8,23c-0.6,1.6-0.1,2,1.4,2.1c7,0.6,13.9,1.9,20.9,2.9c2.6,0.4,5.1,1.3,7.7,1.5
		C225.3,90.1,226.4,90.6,227.6,90.6z M197.6,62.4c-1,0.6-1.7,1-2.3,1.4c-4.5,3.2-8.9,6.5-13.1,10.1c-2.2,1.9-4.6,3.4-6.5,5.6
		c-1.2,1.4-1.1,1.9,0.6,2.5c4.1,1.4,8.2,2.2,12.6,2.2c0.8,0,1-0.3,1.3-1c1.2-3.5,2.6-7,3.9-10.5C195.4,69.5,196.8,66.3,197.6,62.4z"
		/>
	<path fill-rule="evenodd" clip-rule="evenodd" d="M98.1,9.2c-0.4,5.3-0.7,10.5-1.1,15.8c-0.5,8-0.3,15.9,0.1,23.9
		c0.1,1.3,0.6,1,1.3,0.6c2-1.2,3.6-2.8,5.3-4.3c2.7-2.2,5.2-4.7,7.6-7.3c0.9-1.1,1.6-2.3,2-3.6c0.3-1.2,1.2-1.7,2.3-1.7
		c2.1-0.1,4.7,1.6,5.4,3.6c0.2,0.7,0.2,1.3-0.4,1.9c-0.7,0.7-1.5,1.3-2.4,1.7c-7.4,3.1-13.5,8.3-20,12.7c-0.8,0.5-0.6,1.2-0.6,1.8
		c-0.1,5.2,0.5,10.4,1.2,15.6c1.1,8.8,2.3,17.6,4.1,26.3c1,4.6,2.2,9.2,4.2,13.5c0.3,0.6,0.6,1.3,0.7,2c0.2,1-0.1,1.9-1,2.6
		c-1.1,0.7-1.3-0.4-2-0.7c-2.2-0.9-2.3-2.7-2.2-4.7c0.2-4-1-7.8-1.5-11.6c-0.8-6.9-1.8-13.8-2.7-20.7c-0.9-6.5-1.8-13-2.8-19.4
		c-0.3-2.1-0.7-2.2-2.5-0.9c-3.5,2.6-6.8,5.3-10.3,7.9c-9.1,6.6-16.7,14.9-24.9,22.5c-3.4,3.2-6.8,6.2-9.7,9.9
		c-1.1,1.4-2.7,2.1-4.5,2.4c-1.1,0.2-1.3-0.2-1.2-1.2c0.2-2,1.1-3.5,2.5-4.8C56.2,82,68.5,72.3,81,62.7c4.2-3.2,8.4-6.4,12.6-9.5
		c0.8-0.6,0.9-1.2,0.9-2.1c-0.3-5.5-1.2-10.9-2-16.4c-1-6.9-2-13.9-2.6-20.9c-0.3-2.9,0.7-5.2,1.9-7.6c0.7-1.4,1.8-2.2,3.4-1.9
		c1.6,0.3,2.4,1.3,2.7,2.8c0.1,0.7,0.2,1.4,0.3,2.1C98.2,9.2,98.1,9.2,98.1,9.2z"/>
	<path fill-rule="evenodd" clip-rule="evenodd" d="M147.4,59.9c-0.7,0.8-0.9,1.5-0.9,2.4c-0.4,5.8-1.4,11.6-2.9,17.2
		c-0.6,2.3-1.9,4.1-3.8,5.5c-3.1,2.2-6.3,1.5-8-2c-1.4-2.8-1.5-5.9-1.3-8.9c0.4-9,3.4-17.5,6.3-25.9c2.1-6.2,4.4-12.4,7.3-18.3
		c0.5-0.9,0.2-1.8,0.3-2.7c0.1-1.6,0.6-2.7,2.1-3.4c1.6-0.7,3.3-0.7,4.9,0.1c0.3,0.1,0.6,0.6,0.6,0.8c-0.2,1.7,1,2.6,1.9,3.8
		c1.4,1.8,0.4,4.3-2,5.1c-0.9,0.3-1.5,0.6-1.7,1.6c-1.8,8.3-1.9,16.6,0.8,24.8c1,2.9,2.1,5.8,5.9,6.2c0.7,0.1,1.1,0.8,1.3,1.5
		c0.5,1.9,0.1,3.6-0.8,5.2c-0.3,0.6-0.8,0.5-1.3,0.5c-2.2-0.3-3.7-1.7-4.8-3.5C149.3,66.6,148.3,63.4,147.4,59.9z M145.3,39.8
		c-1.2,0.5-1.6,1.4-2.1,2.1c-3.3,5.2-5.7,10.8-7.5,16.6c-2,6.2-3.4,12.5-1.6,19.1c0.2,0.8,0.5,1.6,1.2,1.8c0.9,0.2,1.3-0.6,1.8-1.2
		c1.8-2.4,3.1-5,4.1-7.8c2-5.8,2.9-11.9,3.5-18C145.1,48.3,145.5,44.2,145.3,39.8z"/>
	<path fill-rule="evenodd" clip-rule="evenodd" d="M170.6,62.4c-2.6,4.4-4.8,9-5.6,14.2c-0.3,2-0.4,4.1-0.6,6.1c0,0.2,0,0.5-0.1,0.7
		c-1.5,5.8-2.3,5.5-7.1,4.7c-0.3,0-0.6-0.1-0.9-0.1c0.2-0.8,0.3-1.6-0.1-2.4c-0.5-1-0.1-2.1,0.4-3c2.6-4.3,2.9-9.2,3.6-14
		c1.3-8.8,2-17.7,2.7-26.6c0.4-5.5,0.6-11.1,0.8-16.7c0.1-1.4,0.4-2.6,1.6-3.5c1-0.8,2.2-1.5,3.5-0.8c1.4,0.7,2,2,2,3.5
		c0,1.9-0.7,3.7-1.2,5.4c-3,10.4-4.6,21.1-5.5,31.9c-0.2,2.7-0.5,5.4-0.6,8.2c1.6-1.6,2.3-3.6,3.1-5.5c4.6-10.9,9.2-21.8,14.7-32.2
		c2.3-4.4,4.9-8.8,7.7-12.9c1-1.5,1.8-3.1,2.7-4.7c1-1.9,3.7-2.5,5.8-1.4c1.7,0.8,2.1,2.6,1,4.7c-0.5,1-1.1,2.1-1.9,2.9
		c-7.2,8-12.3,17.4-17.6,26.7c-1.9,3.3-3.7,6.6-5.5,9.9c-0.4-0.1-0.6-0.4-0.6-0.8c1.3-2.4,2.5-4.8,3.8-7.3c3.8-7.4,8-14.7,11.1-22.5
		c0.3-0.8,0.8-1.6,0.6-2.9c-0.8,1-1.5,1.8-2,2.6c-6.3,10-11.2,20.8-15.5,31.8c-0.5,1.2-1.2,2.4-1.1,3.7l0,0c-0.1,0-0.2,0.1-0.3,0.1
		c0.1,0.1,0.2,0.2,0.3,0.2C170,62.4,170.3,62.4,170.6,62.4z"/>
	<path fill-rule="evenodd" clip-rule="evenodd" d="M249.7,85.4c-2.2,0.7-3.8,2-5.4,3.1c-1.9,1.3-3.6,2.7-5.7,3.8
		c-1.7,0.9-3.3,1-4.7-0.4c-1.3-1.4-1.7-3-1-4.9c0.7-1.8,1.7-3.3,2.8-4.9c4.9-7,10-13.7,16.6-19.2c1-0.9,2.1-1.6,3.4-2.1
		c1-0.4,2.1-0.6,2.9,0.3c0.9,1,1.4,0.6,1.9-0.5c2.2-4.6,4.4-9.3,6.7-13.8c2-4.1,4.2-8.1,6.3-12.1c0.8-1.5,1.8-2.7,3.1-3.7
		c0.4-0.3,0.8-0.6,1.3-0.3c0.6,0.3,0.6,0.8,0.5,1.4c-0.2,1.4-0.8,2.7-1.6,3.8c-5.6,7.2-9.4,15.4-13.8,23.3c-1.4,2.4-2.5,4.8-2.6,7.8
		c0,2.7-1.2,5.3-2.2,7.9c-2.7,6.3-5.1,12.6-6.4,19.3c-0.1,0.6-0.3,1.2-0.6,1.8c-0.7,1.3-2.2,1.8-3.6,1.3c-1.6-0.6-1.9-1.8-1.6-3.3
		c0.2-1.1,0.9-2,1.6-2.9C248.7,89.5,249.4,87.7,249.7,85.4z M237.9,86.9c-0.1,0,0.3-0.1,0.7-0.2c4-1.1,7.6-3.2,11.2-5.2
		c1.7-0.9,2.8-2.2,3.5-4c1.1-2.6,2.2-5.2,3.3-7.9c0.4-0.9,0.5-1.9,0.8-2.8c0.3-1-0.2-1.1-1-0.9c-1.4,0.3-2.6,0.9-3.8,1.6
		c-4.6,2.8-8.2,6.5-11.5,10.7c-1.8,2.3-3.5,4.8-4.4,7.7C236.4,86.6,236.4,87.1,237.9,86.9z"/>
	<path fill-rule="evenodd" clip-rule="evenodd" d="M116,70.3c1.2-2.3,1.8-4.8,2.7-7.3c3-8.8,6.3-17.5,11-25.6c0.5-0.9,1-1.7,2-2.2
		c1-0.5,2-0.6,2.8,0.1c0.8,0.7,0.5,1.7,0.1,2.6c-0.2,0.3-0.4,0.6-0.6,0.8c-5.5,5.2-8.5,11.9-11.2,18.8c-2,5.2-3.5,10.5-4.9,15.8
		c-1.1,4.3-1,8.7-0.8,13.1c0.1,1.9,0,3.7-1.5,5.2c-0.9,0.9-1.7,1.6-3,1.1c-1.4-0.5-2.4-1.4-2.6-3c-0.2-1.6,0.1-3.1,0.8-4.4
		c1.4-2.8,1.8-5.7,1.6-8.7c-0.5-6.7,0.2-13.5-0.6-20.2c-0.3-2.4-0.5-4.8,0.4-7.1c0.3-0.8,0.6-1.9,1.6-1.9c1.1-0.1,1.5,1,1.8,1.9
		c0.7,1.6,0.8,3.3,0.7,5c-0.6,5.1-0.5,10.3-0.4,15.5C115.6,70,115.6,70.2,116,70.3z"/>
	<path fill-rule="evenodd" clip-rule="evenodd" d="M273.3,72.2c1.8,0,3.3,0,4.8,0c0.8,0,1.7,0.1,2.4,0.5c1,0.6,1.5,1.3,0.8,2.6
		c-0.7,1.2-1.6,2.3-2.6,3.3c-6.2,6.1-12.4,12.1-18.6,18.2c-1.3,1.2-2.1,2.9-4.1,3.4c-0.3-0.7,0.2-1.2,0.5-1.6
		c3.8-4.7,6.8-10.1,10.8-14.7c1.7-2,3.6-3.8,5.5-5.7c0.3-0.3,1-0.6,0.6-1.1c-0.5-0.6-0.9,0.1-1.3,0.3c-2.1,1.4-4.1,3.1-6.4,4.3
		c-1.5,0.8-3.2,1.7-4.7,0.2c-1.5-1.4-0.6-3.2,0-4.7c0.4-1,1.2-1.8,2-2.4c4.3-3,8.3-6.4,12.8-9.2c0.8-0.5,1.6-1,2.6-1
		c0.8,0,1.4,0.2,1.8,0.9c0.3,0.7,0.1,1.4-0.3,2c-0.5,0.8-1.3,1.3-2.2,1.7C276.1,70,274.7,70.9,273.3,72.2z M273.9,76.2
		c-0.3,0.3-0.4,0.5-0.5,0.6c0.1,0.1,0.2,0.2,0.4,0.2c0.1,0,0.3-0.2,0.3-0.3C274.1,76.6,274,76.4,273.9,76.2z"/>
	<path fill-rule="evenodd" clip-rule="evenodd" d="M227.6,90.6c-1.2,0-2.3-0.5-3.4-1c1.2-2.8,1.1-5.9,1.8-8.9
		c1.2-4.7,0.8-9.6,1.4-14.5c0.1-1.3,0.4-2.4,2-2.5c0.2,0,0.3-0.1,0.5-0.2c2.3-1.2,3.5-0.5,3.8,2.2c0.2,1.8-0.3,3.6-0.9,5.3
		c-1.9,5.5-3.8,11-4.8,16.7C227.7,88.7,227.7,89.7,227.6,90.6z"/>
	<path fill-rule="evenodd" clip-rule="evenodd" d="M54.2,67.2c0,0.5,0.2,0.7,0.7,0.7c0,0.1-0.1,0.2-0.1,0.3
		C46.9,77,39.4,86.1,32.2,95.4c-4.8,6.1-9.2,12.5-13.8,18.8c-0.2-0.4-0.5-0.4-0.8-0.5c3.6-5.6,7.7-10.8,11.7-16.1
		c7.7-10.2,15.8-20,24.2-29.6C53.7,67.7,54,67.5,54.2,67.2z"/>
	<path fill-rule="evenodd" clip-rule="evenodd" d="M142.5,116.2c-2.7,6-6,11.7-8.3,17.9c-0.9,2.3-1.7,4.7-2.3,7.1
		c-0.5,2.1-2,3.8-2.9,3.5c-0.8-0.3-0.9-3.1,0-4.7c2.9-5.7,5.9-11.4,8.9-17c1.2-2.3,2.4-4.5,3.6-6.8
		C141.8,116.2,142.2,116.2,142.5,116.2z"/>
	<path fill-rule="evenodd" clip-rule="evenodd" d="M223.8,92c1.1,0.2,2.1,0.4,2.9,1.2c-1.4,3.9-1.9,7.9-2.6,11.9
		c-0.3,2.2-0.4,4.5-2.1,6.8c-0.9-2.5-0.5-4.7-0.2-6.8c0.5-3.7,1.2-7.4,1.8-11C223.9,93.4,223.8,92.7,223.8,92z"/>
	<path fill-rule="evenodd" clip-rule="evenodd" d="M142.5,116.2c-0.3,0-0.7,0-1,0c3.2-6.3,6.5-12.6,9.7-18.9
		c1.6-3.1,3.2-6.3,5.1-9.3c0.3,0,0.6,0.1,0.9,0.1c-4.9,8.2-8.9,16.8-13.2,25.3C143.5,114.4,143,115.3,142.5,116.2z"/>
	<path fill-rule="evenodd" clip-rule="evenodd" d="M232.3,54.3c0,1.5-2.2,4-3.7,4.2c-1.8,0.2-2.9-1.4-2.1-3.2
		c0.6-1.3,1.6-2.3,2.9-2.9C230.9,51.7,232.3,52.7,232.3,54.3z"/>
	<path fill-rule="evenodd" clip-rule="evenodd" d="M20.8,35.6c0,0.5,0.3,0.7,0.7,0.7c-5.2,4.5-10.3,9-14.8,14c-0.2,0-0.5,0-0.7,0
		c3.7-5.1,8.3-9.2,13-13.4C19.6,36.5,20.2,36.1,20.8,35.6z"/>
	<path fill-rule="evenodd" clip-rule="evenodd" fill="#0A0A0A" d="M170.6,62.4c-0.3,0-0.7-0.1-1-0.1c0,0,0.1-0.1,0.1-0.1
		c0-0.1,0-0.2-0.1-0.3l0,0c1.5-1.6,1.8-3.7,3.1-5.4c0,0.4,0.2,0.7,0.6,0.8C172.5,59.1,171.6,60.7,170.6,62.4z"/>
	<path fill-rule="evenodd" clip-rule="evenodd" d="M6,50.4c0.2,0,0.5,0,0.7,0c-0.9,1.3-1.9,2.6-2.8,3.9c-0.1,0-0.2,0-0.4,0
		C4.1,52.8,5,51.5,6,50.4z"/>
</g>
</svg>
